<mxfile host="app.diagrams.net" modified="2023-10-27T09:43:56.036Z" agent="Mozilla/5.0 (X11; Linux x86_64) AppleWebKit/537.36 (KHTML, like Gecko) Chrome/118.0.0.0 Safari/537.36" etag="tDL_oyxih6v246fVKz4I" version="22.0.8" type="device">
  <diagram name="Page-1" id="LrJPD_r7MfjsPH3hPV7A">
    <mxGraphModel dx="866" dy="501" grid="0" gridSize="10" guides="1" tooltips="1" connect="1" arrows="1" fold="1" page="1" pageScale="1" pageWidth="583" pageHeight="413" math="0" shadow="0">
      <root>
        <mxCell id="0" />
        <mxCell id="1" parent="0" />
        <mxCell id="ESqMJrH-nv29b6uswro8-9" value="" style="endArrow=classic;html=1;rounded=1;exitX=0.5;exitY=1;exitDx=0;exitDy=0;labelBackgroundColor=none;fontColor=default;" edge="1" parent="1" source="ESqMJrH-nv29b6uswro8-1">
          <mxGeometry width="50" height="50" relative="1" as="geometry">
            <mxPoint x="430" y="471" as="sourcePoint" />
            <mxPoint x="140" y="446" as="targetPoint" />
          </mxGeometry>
        </mxCell>
        <mxCell id="ESqMJrH-nv29b6uswro8-12" value="&lt;div style=&quot;text-align: center;&quot;&gt;&lt;span style=&quot;font-size: 11px; background-color: rgb(255, 255, 255);&quot;&gt;user not authenticated&lt;/span&gt;&lt;/div&gt;" style="text;whiteSpace=wrap;html=1;labelBackgroundColor=none;rounded=1;" vertex="1" parent="1">
          <mxGeometry x="87" y="386" width="112" height="32" as="geometry" />
        </mxCell>
        <mxCell id="ESqMJrH-nv29b6uswro8-13" value="" style="rounded=1;whiteSpace=wrap;html=1;labelBackgroundColor=none;" vertex="1" parent="1">
          <mxGeometry x="359" y="46" width="140" height="290" as="geometry" />
        </mxCell>
        <mxCell id="ESqMJrH-nv29b6uswro8-14" value="&lt;span style=&quot;color: rgb(0, 0, 0); font-family: Helvetica; font-size: 11px; font-style: normal; font-variant-ligatures: normal; font-variant-caps: normal; font-weight: 400; letter-spacing: normal; orphans: 2; text-align: center; text-indent: 0px; text-transform: none; widows: 2; word-spacing: 0px; -webkit-text-stroke-width: 0px; background-color: rgb(255, 255, 255); text-decoration-thickness: initial; text-decoration-style: initial; text-decoration-color: initial; float: none; display: inline !important;&quot;&gt;Starts from here...&lt;/span&gt;" style="text;whiteSpace=wrap;html=1;labelBackgroundColor=none;rounded=1;" vertex="1" parent="1">
          <mxGeometry x="95" y="21" width="115" height="40" as="geometry" />
        </mxCell>
        <mxCell id="ESqMJrH-nv29b6uswro8-15" value="" style="group;labelBackgroundColor=none;rounded=1;" vertex="1" connectable="0" parent="1">
          <mxGeometry x="70" y="51" width="140" height="290" as="geometry" />
        </mxCell>
        <mxCell id="ESqMJrH-nv29b6uswro8-1" value="" style="rounded=1;whiteSpace=wrap;html=1;labelBackgroundColor=none;" vertex="1" parent="ESqMJrH-nv29b6uswro8-15">
          <mxGeometry width="140" height="290" as="geometry" />
        </mxCell>
        <mxCell id="ESqMJrH-nv29b6uswro8-4" value="Logo" style="whiteSpace=wrap;html=1;aspect=fixed;labelBackgroundColor=none;rounded=1;" vertex="1" parent="ESqMJrH-nv29b6uswro8-15">
          <mxGeometry x="30" y="120" width="80" height="80" as="geometry" />
        </mxCell>
        <mxCell id="ESqMJrH-nv29b6uswro8-5" value="" style="endArrow=none;html=1;rounded=1;labelBackgroundColor=none;fontColor=default;" edge="1" parent="ESqMJrH-nv29b6uswro8-15">
          <mxGeometry width="50" height="50" relative="1" as="geometry">
            <mxPoint x="35" y="240" as="sourcePoint" />
            <mxPoint x="105" y="240" as="targetPoint" />
          </mxGeometry>
        </mxCell>
        <mxCell id="ESqMJrH-nv29b6uswro8-7" value="Loading..." style="edgeLabel;html=1;align=center;verticalAlign=middle;resizable=0;points=[];labelBackgroundColor=none;rounded=1;" vertex="1" connectable="0" parent="ESqMJrH-nv29b6uswro8-5">
          <mxGeometry x="0.6" y="-4" relative="1" as="geometry">
            <mxPoint x="-21" y="6" as="offset" />
          </mxGeometry>
        </mxCell>
        <mxCell id="ESqMJrH-nv29b6uswro8-8" value="&lt;span style=&quot;color: rgb(0, 0, 0); font-family: Helvetica; font-size: 11px; font-style: normal; font-variant-ligatures: normal; font-variant-caps: normal; font-weight: 400; letter-spacing: normal; orphans: 2; text-align: center; text-indent: 0px; text-transform: none; widows: 2; word-spacing: 0px; -webkit-text-stroke-width: 0px; background-color: rgb(255, 255, 255); text-decoration-thickness: initial; text-decoration-style: initial; text-decoration-color: initial; float: none; display: inline !important;&quot;&gt;Application Name&lt;/span&gt;" style="text;whiteSpace=wrap;html=1;labelBackgroundColor=none;rounded=1;" vertex="1" parent="ESqMJrH-nv29b6uswro8-15">
          <mxGeometry x="25" y="60" width="90" height="40" as="geometry" />
        </mxCell>
        <mxCell id="ESqMJrH-nv29b6uswro8-18" value="" style="endArrow=classic;html=1;rounded=1;exitX=0.5;exitY=1;exitDx=0;exitDy=0;labelBackgroundColor=none;fontColor=default;" edge="1" parent="1">
          <mxGeometry width="50" height="50" relative="1" as="geometry">
            <mxPoint x="210" y="191" as="sourcePoint" />
            <mxPoint x="350" y="191" as="targetPoint" />
          </mxGeometry>
        </mxCell>
        <mxCell id="ESqMJrH-nv29b6uswro8-28" value="" style="group;labelBackgroundColor=none;rounded=1;" vertex="1" connectable="0" parent="1">
          <mxGeometry x="71" y="462" width="140" height="290" as="geometry" />
        </mxCell>
        <mxCell id="ESqMJrH-nv29b6uswro8-10" value="" style="rounded=1;whiteSpace=wrap;html=1;labelBackgroundColor=none;" vertex="1" parent="ESqMJrH-nv29b6uswro8-28">
          <mxGeometry width="140" height="290" as="geometry" />
        </mxCell>
        <mxCell id="ESqMJrH-nv29b6uswro8-22" value="&lt;span style=&quot;color: rgb(0, 0, 0); font-family: Helvetica; font-size: 11px; font-style: normal; font-variant-ligatures: normal; font-variant-caps: normal; font-weight: 400; letter-spacing: normal; orphans: 2; text-align: center; text-indent: 0px; text-transform: none; widows: 2; word-spacing: 0px; -webkit-text-stroke-width: 0px; background-color: rgb(255, 255, 255); text-decoration-thickness: initial; text-decoration-style: initial; text-decoration-color: initial; float: none; display: inline !important;&quot;&gt;Application Name&lt;/span&gt;" style="text;whiteSpace=wrap;html=1;labelBackgroundColor=none;rounded=1;" vertex="1" parent="ESqMJrH-nv29b6uswro8-28">
          <mxGeometry x="25" y="10" width="90" height="40" as="geometry" />
        </mxCell>
        <mxCell id="ESqMJrH-nv29b6uswro8-23" value="&lt;span style=&quot;color: rgb(0, 0, 0); font-family: Helvetica; font-size: 11px; font-style: normal; font-variant-ligatures: normal; font-variant-caps: normal; font-weight: 400; letter-spacing: normal; orphans: 2; text-align: center; text-indent: 0px; text-transform: none; widows: 2; word-spacing: 0px; -webkit-text-stroke-width: 0px; background-color: rgb(255, 255, 255); text-decoration-thickness: initial; text-decoration-style: initial; text-decoration-color: initial; float: none; display: inline !important;&quot;&gt;Welcome text&lt;/span&gt;" style="text;whiteSpace=wrap;html=1;labelBackgroundColor=none;rounded=1;" vertex="1" parent="ESqMJrH-nv29b6uswro8-28">
          <mxGeometry x="32.5" y="60" width="75" height="40" as="geometry" />
        </mxCell>
        <mxCell id="ESqMJrH-nv29b6uswro8-24" value="email input" style="rounded=1;whiteSpace=wrap;html=1;labelBackgroundColor=none;" vertex="1" parent="ESqMJrH-nv29b6uswro8-28">
          <mxGeometry x="10" y="100" width="120" height="30" as="geometry" />
        </mxCell>
        <mxCell id="ESqMJrH-nv29b6uswro8-25" value="password input" style="rounded=1;whiteSpace=wrap;html=1;labelBackgroundColor=none;" vertex="1" parent="ESqMJrH-nv29b6uswro8-28">
          <mxGeometry x="10" y="140" width="120" height="30" as="geometry" />
        </mxCell>
        <mxCell id="ESqMJrH-nv29b6uswro8-26" value="&lt;font color=&quot;#ffffff&quot;&gt;Login&lt;/font&gt;" style="rounded=1;whiteSpace=wrap;html=1;labelBackgroundColor=none;fillColor=#000000;" vertex="1" parent="ESqMJrH-nv29b6uswro8-28">
          <mxGeometry x="10" y="190" width="120" height="30" as="geometry" />
        </mxCell>
        <mxCell id="ESqMJrH-nv29b6uswro8-43" value="create an account" style="text;html=1;align=center;verticalAlign=middle;resizable=0;points=[];autosize=1;strokeColor=none;fillColor=none;labelBackgroundColor=none;rounded=1;" vertex="1" parent="ESqMJrH-nv29b6uswro8-28">
          <mxGeometry x="13.5" y="228" width="113" height="26" as="geometry" />
        </mxCell>
        <mxCell id="ESqMJrH-nv29b6uswro8-30" value="" style="rounded=1;whiteSpace=wrap;html=1;labelBackgroundColor=none;" vertex="1" parent="1">
          <mxGeometry x="77" y="775" width="140" height="290" as="geometry" />
        </mxCell>
        <mxCell id="ESqMJrH-nv29b6uswro8-36" value="" style="group;labelBackgroundColor=none;rounded=1;" vertex="1" connectable="0" parent="1">
          <mxGeometry x="87" y="795" width="120" height="210" as="geometry" />
        </mxCell>
        <mxCell id="ESqMJrH-nv29b6uswro8-31" value="&lt;span style=&quot;color: rgb(0, 0, 0); font-family: Helvetica; font-size: 11px; font-style: normal; font-variant-ligatures: normal; font-variant-caps: normal; font-weight: 400; letter-spacing: normal; orphans: 2; text-align: center; text-indent: 0px; text-transform: none; widows: 2; word-spacing: 0px; -webkit-text-stroke-width: 0px; background-color: rgb(255, 255, 255); text-decoration-thickness: initial; text-decoration-style: initial; text-decoration-color: initial; float: none; display: inline !important;&quot;&gt;Application Name&lt;/span&gt;" style="text;whiteSpace=wrap;html=1;labelBackgroundColor=none;rounded=1;" vertex="1" parent="ESqMJrH-nv29b6uswro8-36">
          <mxGeometry x="15" width="90" height="40" as="geometry" />
        </mxCell>
        <mxCell id="ESqMJrH-nv29b6uswro8-32" value="&lt;span style=&quot;color: rgb(0, 0, 0); font-family: Helvetica; font-size: 11px; font-style: normal; font-variant-ligatures: normal; font-variant-caps: normal; font-weight: 400; letter-spacing: normal; orphans: 2; text-align: center; text-indent: 0px; text-transform: none; widows: 2; word-spacing: 0px; -webkit-text-stroke-width: 0px; background-color: rgb(255, 255, 255); text-decoration-thickness: initial; text-decoration-style: initial; text-decoration-color: initial; float: none; display: inline !important;&quot;&gt;Welcome text&lt;/span&gt;" style="text;whiteSpace=wrap;html=1;labelBackgroundColor=none;rounded=1;" vertex="1" parent="ESqMJrH-nv29b6uswro8-36">
          <mxGeometry x="22.5" y="50" width="75" height="40" as="geometry" />
        </mxCell>
        <mxCell id="ESqMJrH-nv29b6uswro8-33" value="email input" style="rounded=1;whiteSpace=wrap;html=1;labelBackgroundColor=none;" vertex="1" parent="ESqMJrH-nv29b6uswro8-36">
          <mxGeometry y="81" width="120" height="30" as="geometry" />
        </mxCell>
        <mxCell id="ESqMJrH-nv29b6uswro8-34" value="password input" style="rounded=1;whiteSpace=wrap;html=1;labelBackgroundColor=none;" vertex="1" parent="ESqMJrH-nv29b6uswro8-36">
          <mxGeometry y="117" width="120" height="30" as="geometry" />
        </mxCell>
        <mxCell id="ESqMJrH-nv29b6uswro8-42" value="password input" style="rounded=1;whiteSpace=wrap;html=1;labelBackgroundColor=none;" vertex="1" parent="ESqMJrH-nv29b6uswro8-36">
          <mxGeometry y="152" width="120" height="30" as="geometry" />
        </mxCell>
        <mxCell id="ESqMJrH-nv29b6uswro8-35" value="&lt;font color=&quot;#ffffff&quot;&gt;Register&lt;/font&gt;" style="rounded=1;whiteSpace=wrap;html=1;labelBackgroundColor=none;fillColor=#000000;" vertex="1" parent="1">
          <mxGeometry x="87" y="986" width="120" height="30" as="geometry" />
        </mxCell>
        <mxCell id="ESqMJrH-nv29b6uswro8-21" style="edgeStyle=orthogonalEdgeStyle;rounded=1;orthogonalLoop=1;jettySize=auto;html=1;entryX=0.5;entryY=1;entryDx=0;entryDy=0;exitX=1.021;exitY=0.71;exitDx=0;exitDy=0;exitPerimeter=0;labelBackgroundColor=none;fontColor=default;" edge="1" parent="1">
          <mxGeometry relative="1" as="geometry">
            <mxPoint x="379.06" y="338" as="targetPoint" />
            <mxPoint x="164.00000000000006" y="664.9000000000001" as="sourcePoint" />
          </mxGeometry>
        </mxCell>
        <mxCell id="ESqMJrH-nv29b6uswro8-45" value="" style="endArrow=classic;html=1;rounded=1;entryX=0.457;entryY=0.007;entryDx=0;entryDy=0;entryPerimeter=0;labelBackgroundColor=none;fontColor=default;" edge="1" parent="1" source="ESqMJrH-nv29b6uswro8-43" target="ESqMJrH-nv29b6uswro8-30">
          <mxGeometry width="50" height="50" relative="1" as="geometry">
            <mxPoint x="309" y="845" as="sourcePoint" />
            <mxPoint x="359" y="795" as="targetPoint" />
          </mxGeometry>
        </mxCell>
        <mxCell id="ESqMJrH-nv29b6uswro8-48" value="&lt;div style=&quot;text-align: center;&quot;&gt;&lt;span style=&quot;font-size: 11px; background-color: rgb(255, 255, 255);&quot;&gt;&amp;nbsp; user authenticated&amp;nbsp;&amp;nbsp;&lt;/span&gt;&lt;/div&gt;" style="text;whiteSpace=wrap;html=1;direction=west;rotation=90;labelBackgroundColor=none;rounded=1;" vertex="1" parent="1">
          <mxGeometry x="302.06" y="490" width="147" height="37" as="geometry" />
        </mxCell>
        <mxCell id="ESqMJrH-nv29b6uswro8-54" style="edgeStyle=orthogonalEdgeStyle;rounded=1;orthogonalLoop=1;jettySize=auto;html=1;exitX=0;exitY=0.25;exitDx=0;exitDy=0;labelBackgroundColor=none;fontColor=default;" edge="1" parent="1">
          <mxGeometry relative="1" as="geometry">
            <mxPoint x="67" y="694" as="targetPoint" />
            <mxPoint x="77" y="1008" as="sourcePoint" />
            <Array as="points">
              <mxPoint x="21" y="1008" />
              <mxPoint x="21" y="693" />
              <mxPoint x="61" y="693" />
              <mxPoint x="61" y="694" />
            </Array>
          </mxGeometry>
        </mxCell>
        <mxCell id="ESqMJrH-nv29b6uswro8-56" value="&amp;nbsp; On registration success&amp;nbsp;&amp;nbsp;" style="edgeLabel;html=1;align=center;verticalAlign=middle;resizable=0;points=[];rotation=270;labelBackgroundColor=none;rounded=1;" vertex="1" connectable="0" parent="ESqMJrH-nv29b6uswro8-54">
          <mxGeometry x="-0.8431" y="3" relative="1" as="geometry">
            <mxPoint x="-24" y="-120" as="offset" />
          </mxGeometry>
        </mxCell>
        <mxCell id="ESqMJrH-nv29b6uswro8-61" value="" style="endArrow=classic;html=1;rounded=1;entryX=1.007;entryY=0.348;entryDx=0;entryDy=0;entryPerimeter=0;labelBackgroundColor=none;fontColor=default;" edge="1" parent="1" target="ESqMJrH-nv29b6uswro8-30">
          <mxGeometry width="50" height="50" relative="1" as="geometry">
            <mxPoint x="224" y="1009" as="sourcePoint" />
            <mxPoint x="235" y="873" as="targetPoint" />
            <Array as="points">
              <mxPoint x="288" y="1009" />
              <mxPoint x="288" y="876" />
            </Array>
          </mxGeometry>
        </mxCell>
        <mxCell id="ESqMJrH-nv29b6uswro8-62" value="&lt;span style=&quot;color: rgb(0, 0, 0); font-family: Helvetica; font-size: 11px; font-style: normal; font-variant-ligatures: normal; font-variant-caps: normal; font-weight: 400; letter-spacing: normal; orphans: 2; text-align: center; text-indent: 0px; text-transform: none; widows: 2; word-spacing: 0px; -webkit-text-stroke-width: 0px; background-color: rgb(255, 255, 255); text-decoration-thickness: initial; text-decoration-style: initial; text-decoration-color: initial; float: none; display: inline !important;&quot;&gt;&amp;nbsp; On registration failure&amp;nbsp;&amp;nbsp;&lt;/span&gt;" style="text;whiteSpace=wrap;html=1;rotation=90;labelBackgroundColor=none;rounded=1;" vertex="1" parent="1">
          <mxGeometry x="209.00333333333327" y="938.0042857142855" width="150" height="36" as="geometry" />
        </mxCell>
        <mxCell id="ESqMJrH-nv29b6uswro8-75" style="edgeStyle=orthogonalEdgeStyle;rounded=1;orthogonalLoop=1;jettySize=auto;html=1;exitX=-0.007;exitY=0.628;exitDx=0;exitDy=0;exitPerimeter=0;labelBackgroundColor=none;fontColor=default;" edge="1" parent="1" source="ESqMJrH-nv29b6uswro8-10">
          <mxGeometry relative="1" as="geometry">
            <mxPoint x="69" y="497" as="targetPoint" />
            <mxPoint x="79" y="811" as="sourcePoint" />
            <Array as="points">
              <mxPoint x="70" y="646" />
              <mxPoint x="23" y="646" />
              <mxPoint x="23" y="496" />
              <mxPoint x="63" y="496" />
            </Array>
          </mxGeometry>
        </mxCell>
        <mxCell id="ESqMJrH-nv29b6uswro8-76" value="&amp;nbsp; On login failure&amp;nbsp;&amp;nbsp;" style="edgeLabel;html=1;align=center;verticalAlign=middle;resizable=0;points=[];rotation=270;labelBackgroundColor=none;rounded=1;" vertex="1" connectable="0" parent="ESqMJrH-nv29b6uswro8-75">
          <mxGeometry x="-0.8431" y="3" relative="1" as="geometry">
            <mxPoint x="-29" y="-76" as="offset" />
          </mxGeometry>
        </mxCell>
        <mxCell id="ESqMJrH-nv29b6uswro8-78" value="app name / logo" style="rounded=1;whiteSpace=wrap;html=1;labelBackgroundColor=none;" vertex="1" parent="1">
          <mxGeometry x="370" y="61" width="118" height="41" as="geometry" />
        </mxCell>
        <mxCell id="ESqMJrH-nv29b6uswro8-17" value="&lt;span style=&quot;color: rgb(0, 0, 0); font-family: Helvetica; font-size: 11px; font-style: normal; font-variant-ligatures: normal; font-variant-caps: normal; font-weight: 400; letter-spacing: normal; orphans: 2; text-align: center; text-indent: 0px; text-transform: none; widows: 2; word-spacing: 0px; -webkit-text-stroke-width: 0px; background-color: rgb(255, 255, 255); text-decoration-thickness: initial; text-decoration-style: initial; text-decoration-color: initial; float: none; display: inline !important;&quot;&gt;User authenticated from cache&lt;/span&gt;" style="text;whiteSpace=wrap;html=1;labelBackgroundColor=none;rounded=1;" vertex="1" parent="1">
          <mxGeometry x="231" y="174" width="115" height="40" as="geometry" />
        </mxCell>
        <mxCell id="ESqMJrH-nv29b6uswro8-103" style="edgeStyle=orthogonalEdgeStyle;rounded=0;orthogonalLoop=1;jettySize=auto;html=1;exitX=1;exitY=0.5;exitDx=0;exitDy=0;" edge="1" parent="1" source="ESqMJrH-nv29b6uswro8-86" target="ESqMJrH-nv29b6uswro8-93">
          <mxGeometry relative="1" as="geometry">
            <mxPoint x="829" y="31" as="targetPoint" />
            <Array as="points">
              <mxPoint x="537" y="152" />
              <mxPoint x="537" y="31" />
              <mxPoint x="830" y="31" />
            </Array>
          </mxGeometry>
        </mxCell>
        <mxCell id="ESqMJrH-nv29b6uswro8-86" value="Find online players" style="rounded=1;whiteSpace=wrap;html=1;labelBackgroundColor=none;" vertex="1" parent="1">
          <mxGeometry x="370" y="132" width="118" height="41" as="geometry" />
        </mxCell>
        <mxCell id="ESqMJrH-nv29b6uswro8-101" style="edgeStyle=orthogonalEdgeStyle;rounded=0;orthogonalLoop=1;jettySize=auto;html=1;exitX=1;exitY=0.5;exitDx=0;exitDy=0;" edge="1" parent="1" source="ESqMJrH-nv29b6uswro8-87">
          <mxGeometry relative="1" as="geometry">
            <mxPoint x="616" y="199" as="targetPoint" />
          </mxGeometry>
        </mxCell>
        <mxCell id="ESqMJrH-nv29b6uswro8-87" value="Join with invitation code" style="rounded=1;whiteSpace=wrap;html=1;labelBackgroundColor=none;" vertex="1" parent="1">
          <mxGeometry x="370" y="179" width="118" height="41" as="geometry" />
        </mxCell>
        <mxCell id="ESqMJrH-nv29b6uswro8-142" style="edgeStyle=orthogonalEdgeStyle;rounded=0;orthogonalLoop=1;jettySize=auto;html=1;exitX=0.75;exitY=1;exitDx=0;exitDy=0;entryX=0;entryY=0.25;entryDx=0;entryDy=0;" edge="1" parent="1" source="ESqMJrH-nv29b6uswro8-88" target="ESqMJrH-nv29b6uswro8-141">
          <mxGeometry relative="1" as="geometry" />
        </mxCell>
        <mxCell id="ESqMJrH-nv29b6uswro8-88" value="&lt;font style=&quot;font-size: 7px;&quot;&gt;Personal Game Records&lt;/font&gt;" style="rounded=1;whiteSpace=wrap;html=1;labelBackgroundColor=none;" vertex="1" parent="1">
          <mxGeometry x="368" y="260" width="58" height="43" as="geometry" />
        </mxCell>
        <mxCell id="ESqMJrH-nv29b6uswro8-163" style="edgeStyle=orthogonalEdgeStyle;rounded=0;orthogonalLoop=1;jettySize=auto;html=1;exitX=0.5;exitY=1;exitDx=0;exitDy=0;" edge="1" parent="1" source="ESqMJrH-nv29b6uswro8-89" target="ESqMJrH-nv29b6uswro8-161">
          <mxGeometry relative="1" as="geometry" />
        </mxCell>
        <mxCell id="ESqMJrH-nv29b6uswro8-89" value="&lt;font style=&quot;font-size: 9px;&quot;&gt;Leaderboard&lt;/font&gt;" style="rounded=1;whiteSpace=wrap;html=1;labelBackgroundColor=none;" vertex="1" parent="1">
          <mxGeometry x="432" y="260" width="58" height="44" as="geometry" />
        </mxCell>
        <mxCell id="ESqMJrH-nv29b6uswro8-90" value="" style="rounded=1;whiteSpace=wrap;html=1;labelBackgroundColor=none;" vertex="1" parent="1">
          <mxGeometry x="709" y="435.5" width="140" height="290" as="geometry" />
        </mxCell>
        <mxCell id="ESqMJrH-nv29b6uswro8-92" value="Game screen" style="text;html=1;align=center;verticalAlign=middle;resizable=0;points=[];autosize=1;strokeColor=none;fillColor=none;labelBackgroundColor=none;rounded=1;" vertex="1" parent="1">
          <mxGeometry x="736" y="409.5" width="90" height="26" as="geometry" />
        </mxCell>
        <mxCell id="ESqMJrH-nv29b6uswro8-120" style="edgeStyle=orthogonalEdgeStyle;rounded=0;orthogonalLoop=1;jettySize=auto;html=1;exitX=0.75;exitY=0;exitDx=0;exitDy=0;entryX=0.5;entryY=0;entryDx=0;entryDy=0;" edge="1" parent="1" source="ESqMJrH-nv29b6uswro8-93" target="ESqMJrH-nv29b6uswro8-13">
          <mxGeometry relative="1" as="geometry">
            <Array as="points">
              <mxPoint x="866" y="16" />
              <mxPoint x="429" y="16" />
            </Array>
          </mxGeometry>
        </mxCell>
        <mxCell id="ESqMJrH-nv29b6uswro8-124" style="edgeStyle=orthogonalEdgeStyle;rounded=0;orthogonalLoop=1;jettySize=auto;html=1;exitX=0.75;exitY=1;exitDx=0;exitDy=0;entryX=1;entryY=0.25;entryDx=0;entryDy=0;" edge="1" parent="1" source="ESqMJrH-nv29b6uswro8-93" target="ESqMJrH-nv29b6uswro8-90">
          <mxGeometry relative="1" as="geometry" />
        </mxCell>
        <mxCell id="ESqMJrH-nv29b6uswro8-93" value="finding player/match&lt;br&gt;(loading screen)" style="rounded=1;whiteSpace=wrap;html=1;labelBackgroundColor=none;" vertex="1" parent="1">
          <mxGeometry x="781" y="62.5" width="140" height="290" as="geometry" />
        </mxCell>
        <mxCell id="ESqMJrH-nv29b6uswro8-112" style="edgeStyle=orthogonalEdgeStyle;rounded=0;orthogonalLoop=1;jettySize=auto;html=1;exitX=0.5;exitY=1;exitDx=0;exitDy=0;entryX=0.002;entryY=0.337;entryDx=0;entryDy=0;entryPerimeter=0;" edge="1" parent="1" source="ESqMJrH-nv29b6uswro8-99" target="ESqMJrH-nv29b6uswro8-90">
          <mxGeometry relative="1" as="geometry">
            <mxPoint x="687.037037037037" y="527.3888888888888" as="targetPoint" />
          </mxGeometry>
        </mxCell>
        <mxCell id="ESqMJrH-nv29b6uswro8-113" value="&amp;nbsp;on&amp;nbsp; success" style="edgeLabel;html=1;align=center;verticalAlign=middle;resizable=0;points=[];" vertex="1" connectable="0" parent="ESqMJrH-nv29b6uswro8-112">
          <mxGeometry x="-0.2326" y="4" relative="1" as="geometry">
            <mxPoint x="-3" y="-25" as="offset" />
          </mxGeometry>
        </mxCell>
        <mxCell id="ESqMJrH-nv29b6uswro8-125" value="&amp;nbsp;on&amp;nbsp; success" style="edgeLabel;html=1;align=center;verticalAlign=middle;resizable=0;points=[];" vertex="1" connectable="0" parent="ESqMJrH-nv29b6uswro8-112">
          <mxGeometry x="-0.2326" y="4" relative="1" as="geometry">
            <mxPoint x="193" y="-23" as="offset" />
          </mxGeometry>
        </mxCell>
        <mxCell id="ESqMJrH-nv29b6uswro8-99" value="" style="rounded=1;whiteSpace=wrap;html=1;labelBackgroundColor=none;" vertex="1" parent="1">
          <mxGeometry x="617" y="62.5" width="140" height="290" as="geometry" />
        </mxCell>
        <mxCell id="ESqMJrH-nv29b6uswro8-105" value="Enter invitation code" style="rounded=1;whiteSpace=wrap;html=1;labelBackgroundColor=none;" vertex="1" parent="1">
          <mxGeometry x="628" y="167" width="118" height="41" as="geometry" />
        </mxCell>
        <mxCell id="ESqMJrH-nv29b6uswro8-106" value="&lt;font color=&quot;#ffffff&quot;&gt;match and play&lt;/font&gt;" style="rounded=1;whiteSpace=wrap;html=1;labelBackgroundColor=none;fillColor=#000000;" vertex="1" parent="1">
          <mxGeometry x="628" y="219" width="118" height="30" as="geometry" />
        </mxCell>
        <mxCell id="ESqMJrH-nv29b6uswro8-114" style="edgeStyle=orthogonalEdgeStyle;rounded=0;orthogonalLoop=1;jettySize=auto;html=1;exitX=0;exitY=0.59;exitDx=0;exitDy=0;exitPerimeter=0;" edge="1" parent="1" source="ESqMJrH-nv29b6uswro8-99">
          <mxGeometry relative="1" as="geometry">
            <mxPoint x="505" y="234" as="targetPoint" />
            <mxPoint x="594" y="234" as="sourcePoint" />
          </mxGeometry>
        </mxCell>
        <mxCell id="ESqMJrH-nv29b6uswro8-117" value="&amp;nbsp;on failure&amp;nbsp;&lt;br&gt;(with message)" style="edgeLabel;html=1;align=center;verticalAlign=middle;resizable=0;points=[];" vertex="1" connectable="0" parent="ESqMJrH-nv29b6uswro8-114">
          <mxGeometry x="0.0387" y="2" relative="1" as="geometry">
            <mxPoint x="9" as="offset" />
          </mxGeometry>
        </mxCell>
        <mxCell id="ESqMJrH-nv29b6uswro8-118" value="&amp;nbsp;on failure&amp;nbsp;&lt;br&gt;(with message)" style="edgeLabel;html=1;align=center;verticalAlign=middle;resizable=0;points=[];" vertex="1" connectable="0" parent="ESqMJrH-nv29b6uswro8-114">
          <mxGeometry x="0.0387" y="2" relative="1" as="geometry">
            <mxPoint x="-62" y="-217" as="offset" />
          </mxGeometry>
        </mxCell>
        <mxCell id="ESqMJrH-nv29b6uswro8-126" value="" style="shape=table;startSize=0;container=1;collapsible=0;childLayout=tableLayout;" vertex="1" parent="1">
          <mxGeometry x="724" y="541" width="114" height="114" as="geometry" />
        </mxCell>
        <mxCell id="ESqMJrH-nv29b6uswro8-127" value="" style="shape=tableRow;horizontal=0;startSize=0;swimlaneHead=0;swimlaneBody=0;strokeColor=inherit;top=0;left=0;bottom=0;right=0;collapsible=0;dropTarget=0;fillColor=none;points=[[0,0.5],[1,0.5]];portConstraint=eastwest;" vertex="1" parent="ESqMJrH-nv29b6uswro8-126">
          <mxGeometry width="114" height="38" as="geometry" />
        </mxCell>
        <mxCell id="ESqMJrH-nv29b6uswro8-128" value="" style="shape=partialRectangle;html=1;whiteSpace=wrap;connectable=0;strokeColor=inherit;overflow=hidden;fillColor=none;top=0;left=0;bottom=0;right=0;pointerEvents=1;" vertex="1" parent="ESqMJrH-nv29b6uswro8-127">
          <mxGeometry width="38" height="38" as="geometry">
            <mxRectangle width="38" height="38" as="alternateBounds" />
          </mxGeometry>
        </mxCell>
        <mxCell id="ESqMJrH-nv29b6uswro8-129" value="" style="shape=partialRectangle;html=1;whiteSpace=wrap;connectable=0;strokeColor=inherit;overflow=hidden;fillColor=none;top=0;left=0;bottom=0;right=0;pointerEvents=1;" vertex="1" parent="ESqMJrH-nv29b6uswro8-127">
          <mxGeometry x="38" width="38" height="38" as="geometry">
            <mxRectangle width="38" height="38" as="alternateBounds" />
          </mxGeometry>
        </mxCell>
        <mxCell id="ESqMJrH-nv29b6uswro8-130" value="" style="shape=partialRectangle;html=1;whiteSpace=wrap;connectable=0;strokeColor=inherit;overflow=hidden;fillColor=none;top=0;left=0;bottom=0;right=0;pointerEvents=1;" vertex="1" parent="ESqMJrH-nv29b6uswro8-127">
          <mxGeometry x="76" width="38" height="38" as="geometry">
            <mxRectangle width="38" height="38" as="alternateBounds" />
          </mxGeometry>
        </mxCell>
        <mxCell id="ESqMJrH-nv29b6uswro8-131" value="" style="shape=tableRow;horizontal=0;startSize=0;swimlaneHead=0;swimlaneBody=0;strokeColor=inherit;top=0;left=0;bottom=0;right=0;collapsible=0;dropTarget=0;fillColor=none;points=[[0,0.5],[1,0.5]];portConstraint=eastwest;" vertex="1" parent="ESqMJrH-nv29b6uswro8-126">
          <mxGeometry y="38" width="114" height="38" as="geometry" />
        </mxCell>
        <mxCell id="ESqMJrH-nv29b6uswro8-132" value="" style="shape=partialRectangle;html=1;whiteSpace=wrap;connectable=0;strokeColor=inherit;overflow=hidden;fillColor=none;top=0;left=0;bottom=0;right=0;pointerEvents=1;" vertex="1" parent="ESqMJrH-nv29b6uswro8-131">
          <mxGeometry width="38" height="38" as="geometry">
            <mxRectangle width="38" height="38" as="alternateBounds" />
          </mxGeometry>
        </mxCell>
        <mxCell id="ESqMJrH-nv29b6uswro8-133" value="" style="shape=partialRectangle;html=1;whiteSpace=wrap;connectable=0;strokeColor=inherit;overflow=hidden;fillColor=none;top=0;left=0;bottom=0;right=0;pointerEvents=1;" vertex="1" parent="ESqMJrH-nv29b6uswro8-131">
          <mxGeometry x="38" width="38" height="38" as="geometry">
            <mxRectangle width="38" height="38" as="alternateBounds" />
          </mxGeometry>
        </mxCell>
        <mxCell id="ESqMJrH-nv29b6uswro8-134" value="" style="shape=partialRectangle;html=1;whiteSpace=wrap;connectable=0;strokeColor=inherit;overflow=hidden;fillColor=none;top=0;left=0;bottom=0;right=0;pointerEvents=1;" vertex="1" parent="ESqMJrH-nv29b6uswro8-131">
          <mxGeometry x="76" width="38" height="38" as="geometry">
            <mxRectangle width="38" height="38" as="alternateBounds" />
          </mxGeometry>
        </mxCell>
        <mxCell id="ESqMJrH-nv29b6uswro8-135" value="" style="shape=tableRow;horizontal=0;startSize=0;swimlaneHead=0;swimlaneBody=0;strokeColor=inherit;top=0;left=0;bottom=0;right=0;collapsible=0;dropTarget=0;fillColor=none;points=[[0,0.5],[1,0.5]];portConstraint=eastwest;" vertex="1" parent="ESqMJrH-nv29b6uswro8-126">
          <mxGeometry y="76" width="114" height="38" as="geometry" />
        </mxCell>
        <mxCell id="ESqMJrH-nv29b6uswro8-136" value="" style="shape=partialRectangle;html=1;whiteSpace=wrap;connectable=0;strokeColor=inherit;overflow=hidden;fillColor=none;top=0;left=0;bottom=0;right=0;pointerEvents=1;" vertex="1" parent="ESqMJrH-nv29b6uswro8-135">
          <mxGeometry width="38" height="38" as="geometry">
            <mxRectangle width="38" height="38" as="alternateBounds" />
          </mxGeometry>
        </mxCell>
        <mxCell id="ESqMJrH-nv29b6uswro8-137" value="" style="shape=partialRectangle;html=1;whiteSpace=wrap;connectable=0;strokeColor=inherit;overflow=hidden;fillColor=none;top=0;left=0;bottom=0;right=0;pointerEvents=1;" vertex="1" parent="ESqMJrH-nv29b6uswro8-135">
          <mxGeometry x="38" width="38" height="38" as="geometry">
            <mxRectangle width="38" height="38" as="alternateBounds" />
          </mxGeometry>
        </mxCell>
        <mxCell id="ESqMJrH-nv29b6uswro8-138" value="" style="shape=partialRectangle;html=1;whiteSpace=wrap;connectable=0;strokeColor=inherit;overflow=hidden;fillColor=none;top=0;left=0;bottom=0;right=0;pointerEvents=1;" vertex="1" parent="ESqMJrH-nv29b6uswro8-135">
          <mxGeometry x="76" width="38" height="38" as="geometry">
            <mxRectangle width="38" height="38" as="alternateBounds" />
          </mxGeometry>
        </mxCell>
        <mxCell id="ESqMJrH-nv29b6uswro8-139" value="player1" style="text;html=1;align=center;verticalAlign=middle;resizable=0;points=[];autosize=1;strokeColor=none;fillColor=none;" vertex="1" parent="1">
          <mxGeometry x="715" y="480" width="57" height="26" as="geometry" />
        </mxCell>
        <mxCell id="ESqMJrH-nv29b6uswro8-140" value="player2" style="text;html=1;align=center;verticalAlign=middle;resizable=0;points=[];autosize=1;strokeColor=none;fillColor=none;" vertex="1" parent="1">
          <mxGeometry x="787" y="480" width="57" height="26" as="geometry" />
        </mxCell>
        <mxCell id="ESqMJrH-nv29b6uswro8-141" value="" style="rounded=1;whiteSpace=wrap;html=1;labelBackgroundColor=none;" vertex="1" parent="1">
          <mxGeometry x="436" y="797" width="140" height="290" as="geometry" />
        </mxCell>
        <mxCell id="ESqMJrH-nv29b6uswro8-143" value="last 5 games" style="text;html=1;align=center;verticalAlign=middle;resizable=0;points=[];autosize=1;strokeColor=none;fillColor=none;" vertex="1" parent="1">
          <mxGeometry x="465.56" y="859" width="86" height="26" as="geometry" />
        </mxCell>
        <mxCell id="ESqMJrH-nv29b6uswro8-150" value="" style="shape=table;startSize=0;container=1;collapsible=0;childLayout=tableLayout;" vertex="1" parent="1">
          <mxGeometry x="445" y="897" width="125" height="25" as="geometry" />
        </mxCell>
        <mxCell id="ESqMJrH-nv29b6uswro8-151" value="" style="shape=tableRow;horizontal=0;startSize=0;swimlaneHead=0;swimlaneBody=0;strokeColor=inherit;top=0;left=0;bottom=0;right=0;collapsible=0;dropTarget=0;fillColor=none;points=[[0,0.5],[1,0.5]];portConstraint=eastwest;" vertex="1" parent="ESqMJrH-nv29b6uswro8-150">
          <mxGeometry width="125" height="25" as="geometry" />
        </mxCell>
        <mxCell id="ESqMJrH-nv29b6uswro8-152" value="opponent&lt;span style=&quot;white-space: pre;&quot;&gt;&#x9;&lt;/span&gt;" style="shape=partialRectangle;html=1;whiteSpace=wrap;connectable=0;strokeColor=inherit;overflow=hidden;fillColor=none;top=0;left=0;bottom=0;right=0;pointerEvents=1;align=center;" vertex="1" parent="ESqMJrH-nv29b6uswro8-151">
          <mxGeometry width="63" height="25" as="geometry">
            <mxRectangle width="63" height="25" as="alternateBounds" />
          </mxGeometry>
        </mxCell>
        <mxCell id="ESqMJrH-nv29b6uswro8-153" value="status" style="shape=partialRectangle;html=1;whiteSpace=wrap;connectable=0;strokeColor=inherit;overflow=hidden;fillColor=none;top=0;left=0;bottom=0;right=0;pointerEvents=1;" vertex="1" parent="ESqMJrH-nv29b6uswro8-151">
          <mxGeometry x="63" width="62" height="25" as="geometry">
            <mxRectangle width="62" height="25" as="alternateBounds" />
          </mxGeometry>
        </mxCell>
        <mxCell id="ESqMJrH-nv29b6uswro8-160" value="view all records" style="rounded=1;whiteSpace=wrap;html=1;" vertex="1" parent="1">
          <mxGeometry x="442.56" y="713" width="112" height="15" as="geometry" />
        </mxCell>
        <mxCell id="ESqMJrH-nv29b6uswro8-161" value="" style="rounded=1;whiteSpace=wrap;html=1;labelBackgroundColor=none;" vertex="1" parent="1">
          <mxGeometry x="438" y="485" width="140" height="290" as="geometry" />
        </mxCell>
        <mxCell id="ESqMJrH-nv29b6uswro8-164" value="PERSONAL&lt;br&gt;RECORS" style="text;html=1;align=center;verticalAlign=middle;resizable=0;points=[];autosize=1;strokeColor=none;fillColor=none;" vertex="1" parent="1">
          <mxGeometry x="467" y="814" width="83" height="41" as="geometry" />
        </mxCell>
        <mxCell id="ESqMJrH-nv29b6uswro8-167" value="" style="shape=table;startSize=0;container=1;collapsible=0;childLayout=tableLayout;" vertex="1" parent="1">
          <mxGeometry x="445" y="923" width="125" height="72" as="geometry" />
        </mxCell>
        <mxCell id="ESqMJrH-nv29b6uswro8-168" value="" style="shape=tableRow;horizontal=0;startSize=0;swimlaneHead=0;swimlaneBody=0;strokeColor=inherit;top=0;left=0;bottom=0;right=0;collapsible=0;dropTarget=0;fillColor=none;points=[[0,0.5],[1,0.5]];portConstraint=eastwest;" vertex="1" parent="ESqMJrH-nv29b6uswro8-167">
          <mxGeometry width="125" height="14" as="geometry" />
        </mxCell>
        <mxCell id="ESqMJrH-nv29b6uswro8-169" value="" style="shape=partialRectangle;html=1;whiteSpace=wrap;connectable=0;strokeColor=inherit;overflow=hidden;fillColor=none;top=0;left=0;bottom=0;right=0;pointerEvents=1;" vertex="1" parent="ESqMJrH-nv29b6uswro8-168">
          <mxGeometry width="64" height="14" as="geometry">
            <mxRectangle width="64" height="14" as="alternateBounds" />
          </mxGeometry>
        </mxCell>
        <mxCell id="ESqMJrH-nv29b6uswro8-170" value="" style="shape=partialRectangle;html=1;whiteSpace=wrap;connectable=0;strokeColor=inherit;overflow=hidden;fillColor=none;top=0;left=0;bottom=0;right=0;pointerEvents=1;" vertex="1" parent="ESqMJrH-nv29b6uswro8-168">
          <mxGeometry x="64" width="61" height="14" as="geometry">
            <mxRectangle width="61" height="14" as="alternateBounds" />
          </mxGeometry>
        </mxCell>
        <mxCell id="ESqMJrH-nv29b6uswro8-171" value="" style="shape=tableRow;horizontal=0;startSize=0;swimlaneHead=0;swimlaneBody=0;strokeColor=inherit;top=0;left=0;bottom=0;right=0;collapsible=0;dropTarget=0;fillColor=none;points=[[0,0.5],[1,0.5]];portConstraint=eastwest;" vertex="1" parent="ESqMJrH-nv29b6uswro8-167">
          <mxGeometry y="14" width="125" height="14" as="geometry" />
        </mxCell>
        <mxCell id="ESqMJrH-nv29b6uswro8-172" value="" style="shape=partialRectangle;html=1;whiteSpace=wrap;connectable=0;strokeColor=inherit;overflow=hidden;fillColor=none;top=0;left=0;bottom=0;right=0;pointerEvents=1;" vertex="1" parent="ESqMJrH-nv29b6uswro8-171">
          <mxGeometry width="64" height="14" as="geometry">
            <mxRectangle width="64" height="14" as="alternateBounds" />
          </mxGeometry>
        </mxCell>
        <mxCell id="ESqMJrH-nv29b6uswro8-173" value="" style="shape=partialRectangle;html=1;whiteSpace=wrap;connectable=0;strokeColor=inherit;overflow=hidden;fillColor=none;top=0;left=0;bottom=0;right=0;pointerEvents=1;" vertex="1" parent="ESqMJrH-nv29b6uswro8-171">
          <mxGeometry x="64" width="61" height="14" as="geometry">
            <mxRectangle width="61" height="14" as="alternateBounds" />
          </mxGeometry>
        </mxCell>
        <mxCell id="ESqMJrH-nv29b6uswro8-174" value="" style="shape=tableRow;horizontal=0;startSize=0;swimlaneHead=0;swimlaneBody=0;strokeColor=inherit;top=0;left=0;bottom=0;right=0;collapsible=0;dropTarget=0;fillColor=none;points=[[0,0.5],[1,0.5]];portConstraint=eastwest;" vertex="1" parent="ESqMJrH-nv29b6uswro8-167">
          <mxGeometry y="28" width="125" height="16" as="geometry" />
        </mxCell>
        <mxCell id="ESqMJrH-nv29b6uswro8-175" value="" style="shape=partialRectangle;html=1;whiteSpace=wrap;connectable=0;strokeColor=inherit;overflow=hidden;fillColor=none;top=0;left=0;bottom=0;right=0;pointerEvents=1;" vertex="1" parent="ESqMJrH-nv29b6uswro8-174">
          <mxGeometry width="64" height="16" as="geometry">
            <mxRectangle width="64" height="16" as="alternateBounds" />
          </mxGeometry>
        </mxCell>
        <mxCell id="ESqMJrH-nv29b6uswro8-176" value="" style="shape=partialRectangle;html=1;whiteSpace=wrap;connectable=0;strokeColor=inherit;overflow=hidden;fillColor=none;top=0;left=0;bottom=0;right=0;pointerEvents=1;" vertex="1" parent="ESqMJrH-nv29b6uswro8-174">
          <mxGeometry x="64" width="61" height="16" as="geometry">
            <mxRectangle width="61" height="16" as="alternateBounds" />
          </mxGeometry>
        </mxCell>
        <mxCell id="ESqMJrH-nv29b6uswro8-177" value="" style="shape=tableRow;horizontal=0;startSize=0;swimlaneHead=0;swimlaneBody=0;strokeColor=inherit;top=0;left=0;bottom=0;right=0;collapsible=0;dropTarget=0;fillColor=none;points=[[0,0.5],[1,0.5]];portConstraint=eastwest;" vertex="1" parent="ESqMJrH-nv29b6uswro8-167">
          <mxGeometry y="44" width="125" height="14" as="geometry" />
        </mxCell>
        <mxCell id="ESqMJrH-nv29b6uswro8-178" value="" style="shape=partialRectangle;html=1;whiteSpace=wrap;connectable=0;strokeColor=inherit;overflow=hidden;fillColor=none;top=0;left=0;bottom=0;right=0;pointerEvents=1;" vertex="1" parent="ESqMJrH-nv29b6uswro8-177">
          <mxGeometry width="64" height="14" as="geometry">
            <mxRectangle width="64" height="14" as="alternateBounds" />
          </mxGeometry>
        </mxCell>
        <mxCell id="ESqMJrH-nv29b6uswro8-179" value="" style="shape=partialRectangle;html=1;whiteSpace=wrap;connectable=0;strokeColor=inherit;overflow=hidden;fillColor=none;top=0;left=0;bottom=0;right=0;pointerEvents=1;" vertex="1" parent="ESqMJrH-nv29b6uswro8-177">
          <mxGeometry x="64" width="61" height="14" as="geometry">
            <mxRectangle width="61" height="14" as="alternateBounds" />
          </mxGeometry>
        </mxCell>
        <mxCell id="ESqMJrH-nv29b6uswro8-180" value="" style="shape=tableRow;horizontal=0;startSize=0;swimlaneHead=0;swimlaneBody=0;strokeColor=inherit;top=0;left=0;bottom=0;right=0;collapsible=0;dropTarget=0;fillColor=none;points=[[0,0.5],[1,0.5]];portConstraint=eastwest;" vertex="1" parent="ESqMJrH-nv29b6uswro8-167">
          <mxGeometry y="58" width="125" height="14" as="geometry" />
        </mxCell>
        <mxCell id="ESqMJrH-nv29b6uswro8-181" value="" style="shape=partialRectangle;html=1;whiteSpace=wrap;connectable=0;strokeColor=inherit;overflow=hidden;fillColor=none;top=0;left=0;bottom=0;right=0;pointerEvents=1;" vertex="1" parent="ESqMJrH-nv29b6uswro8-180">
          <mxGeometry width="64" height="14" as="geometry">
            <mxRectangle width="64" height="14" as="alternateBounds" />
          </mxGeometry>
        </mxCell>
        <mxCell id="ESqMJrH-nv29b6uswro8-182" value="" style="shape=partialRectangle;html=1;whiteSpace=wrap;connectable=0;strokeColor=inherit;overflow=hidden;fillColor=none;top=0;left=0;bottom=0;right=0;pointerEvents=1;" vertex="1" parent="ESqMJrH-nv29b6uswro8-180">
          <mxGeometry x="64" width="61" height="14" as="geometry">
            <mxRectangle width="61" height="14" as="alternateBounds" />
          </mxGeometry>
        </mxCell>
        <mxCell id="ESqMJrH-nv29b6uswro8-183" value="LEADERBOARD" style="text;html=1;align=center;verticalAlign=middle;resizable=0;points=[];autosize=1;strokeColor=none;fillColor=none;" vertex="1" parent="1">
          <mxGeometry x="455.56" y="518" width="109" height="26" as="geometry" />
        </mxCell>
        <mxCell id="ESqMJrH-nv29b6uswro8-184" value="vs" style="text;html=1;align=center;verticalAlign=middle;resizable=0;points=[];autosize=1;strokeColor=none;fillColor=none;" vertex="1" parent="1">
          <mxGeometry x="764" y="485" width="30" height="26" as="geometry" />
        </mxCell>
        <mxCell id="ESqMJrH-nv29b6uswro8-185" value="top players" style="text;html=1;align=center;verticalAlign=middle;resizable=0;points=[];autosize=1;strokeColor=none;fillColor=none;" vertex="1" parent="1">
          <mxGeometry x="471.56" y="572" width="77" height="26" as="geometry" />
        </mxCell>
        <mxCell id="ESqMJrH-nv29b6uswro8-186" value="" style="shape=table;startSize=0;container=1;collapsible=0;childLayout=tableLayout;" vertex="1" parent="1">
          <mxGeometry x="456" y="600" width="104" height="103.72413793103442" as="geometry" />
        </mxCell>
        <mxCell id="ESqMJrH-nv29b6uswro8-187" value="" style="shape=tableRow;horizontal=0;startSize=0;swimlaneHead=0;swimlaneBody=0;strokeColor=inherit;top=0;left=0;bottom=0;right=0;collapsible=0;dropTarget=0;fillColor=none;points=[[0,0.5],[1,0.5]];portConstraint=eastwest;" vertex="1" parent="ESqMJrH-nv29b6uswro8-186">
          <mxGeometry width="104" height="44" as="geometry" />
        </mxCell>
        <mxCell id="ESqMJrH-nv29b6uswro8-188" value="player&lt;br&gt;name" style="shape=partialRectangle;html=1;whiteSpace=wrap;connectable=0;strokeColor=inherit;overflow=hidden;fillColor=none;top=0;left=0;bottom=0;right=0;pointerEvents=1;" vertex="1" parent="ESqMJrH-nv29b6uswro8-187">
          <mxGeometry width="53" height="44" as="geometry">
            <mxRectangle width="53" height="44" as="alternateBounds" />
          </mxGeometry>
        </mxCell>
        <mxCell id="ESqMJrH-nv29b6uswro8-189" value="total wins" style="shape=partialRectangle;html=1;whiteSpace=wrap;connectable=0;strokeColor=inherit;overflow=hidden;fillColor=none;top=0;left=0;bottom=0;right=0;pointerEvents=1;" vertex="1" parent="ESqMJrH-nv29b6uswro8-187">
          <mxGeometry x="53" width="51" height="44" as="geometry">
            <mxRectangle width="51" height="44" as="alternateBounds" />
          </mxGeometry>
        </mxCell>
        <mxCell id="ESqMJrH-nv29b6uswro8-190" value="" style="shape=tableRow;horizontal=0;startSize=0;swimlaneHead=0;swimlaneBody=0;strokeColor=inherit;top=0;left=0;bottom=0;right=0;collapsible=0;dropTarget=0;fillColor=none;points=[[0,0.5],[1,0.5]];portConstraint=eastwest;" vertex="1" parent="ESqMJrH-nv29b6uswro8-186">
          <mxGeometry y="44" width="104" height="20" as="geometry" />
        </mxCell>
        <mxCell id="ESqMJrH-nv29b6uswro8-191" value="" style="shape=partialRectangle;html=1;whiteSpace=wrap;connectable=0;strokeColor=inherit;overflow=hidden;fillColor=none;top=0;left=0;bottom=0;right=0;pointerEvents=1;" vertex="1" parent="ESqMJrH-nv29b6uswro8-190">
          <mxGeometry width="53" height="20" as="geometry">
            <mxRectangle width="53" height="20" as="alternateBounds" />
          </mxGeometry>
        </mxCell>
        <mxCell id="ESqMJrH-nv29b6uswro8-192" value="" style="shape=partialRectangle;html=1;whiteSpace=wrap;connectable=0;strokeColor=inherit;overflow=hidden;fillColor=none;top=0;left=0;bottom=0;right=0;pointerEvents=1;" vertex="1" parent="ESqMJrH-nv29b6uswro8-190">
          <mxGeometry x="53" width="51" height="20" as="geometry">
            <mxRectangle width="51" height="20" as="alternateBounds" />
          </mxGeometry>
        </mxCell>
        <mxCell id="ESqMJrH-nv29b6uswro8-193" value="" style="shape=tableRow;horizontal=0;startSize=0;swimlaneHead=0;swimlaneBody=0;strokeColor=inherit;top=0;left=0;bottom=0;right=0;collapsible=0;dropTarget=0;fillColor=none;points=[[0,0.5],[1,0.5]];portConstraint=eastwest;" vertex="1" parent="ESqMJrH-nv29b6uswro8-186">
          <mxGeometry y="64" width="104" height="20" as="geometry" />
        </mxCell>
        <mxCell id="ESqMJrH-nv29b6uswro8-194" value="" style="shape=partialRectangle;html=1;whiteSpace=wrap;connectable=0;strokeColor=inherit;overflow=hidden;fillColor=none;top=0;left=0;bottom=0;right=0;pointerEvents=1;" vertex="1" parent="ESqMJrH-nv29b6uswro8-193">
          <mxGeometry width="53" height="20" as="geometry">
            <mxRectangle width="53" height="20" as="alternateBounds" />
          </mxGeometry>
        </mxCell>
        <mxCell id="ESqMJrH-nv29b6uswro8-195" value="" style="shape=partialRectangle;html=1;whiteSpace=wrap;connectable=0;strokeColor=inherit;overflow=hidden;fillColor=none;top=0;left=0;bottom=0;right=0;pointerEvents=1;" vertex="1" parent="ESqMJrH-nv29b6uswro8-193">
          <mxGeometry x="53" width="51" height="20" as="geometry">
            <mxRectangle width="51" height="20" as="alternateBounds" />
          </mxGeometry>
        </mxCell>
        <mxCell id="ESqMJrH-nv29b6uswro8-196" value="" style="shape=tableRow;horizontal=0;startSize=0;swimlaneHead=0;swimlaneBody=0;strokeColor=inherit;top=0;left=0;bottom=0;right=0;collapsible=0;dropTarget=0;fillColor=none;points=[[0,0.5],[1,0.5]];portConstraint=eastwest;" vertex="1" parent="ESqMJrH-nv29b6uswro8-186">
          <mxGeometry y="84" width="104" height="20" as="geometry" />
        </mxCell>
        <mxCell id="ESqMJrH-nv29b6uswro8-197" value="" style="shape=partialRectangle;html=1;whiteSpace=wrap;connectable=0;strokeColor=inherit;overflow=hidden;fillColor=none;top=0;left=0;bottom=0;right=0;pointerEvents=1;" vertex="1" parent="ESqMJrH-nv29b6uswro8-196">
          <mxGeometry width="53" height="20" as="geometry">
            <mxRectangle width="53" height="20" as="alternateBounds" />
          </mxGeometry>
        </mxCell>
        <mxCell id="ESqMJrH-nv29b6uswro8-198" value="" style="shape=partialRectangle;html=1;whiteSpace=wrap;connectable=0;strokeColor=inherit;overflow=hidden;fillColor=none;top=0;left=0;bottom=0;right=0;pointerEvents=1;" vertex="1" parent="ESqMJrH-nv29b6uswro8-196">
          <mxGeometry x="53" width="51" height="20" as="geometry">
            <mxRectangle width="51" height="20" as="alternateBounds" />
          </mxGeometry>
        </mxCell>
        <mxCell id="ESqMJrH-nv29b6uswro8-199" value="view all records" style="rounded=1;whiteSpace=wrap;html=1;" vertex="1" parent="1">
          <mxGeometry x="452.56" y="723" width="112" height="15" as="geometry" />
        </mxCell>
        <mxCell id="ESqMJrH-nv29b6uswro8-200" value="your position: 69" style="rounded=1;whiteSpace=wrap;html=1;" vertex="1" parent="1">
          <mxGeometry x="452" y="548" width="112" height="15" as="geometry" />
        </mxCell>
        <mxCell id="ESqMJrH-nv29b6uswro8-201" value="" style="rounded=1;whiteSpace=wrap;html=1;labelBackgroundColor=none;" vertex="1" parent="1">
          <mxGeometry x="711" y="838" width="140" height="290" as="geometry" />
        </mxCell>
        <mxCell id="ESqMJrH-nv29b6uswro8-202" style="edgeStyle=orthogonalEdgeStyle;rounded=0;orthogonalLoop=1;jettySize=auto;html=1;exitX=0.5;exitY=1;exitDx=0;exitDy=0;" edge="1" parent="1" source="ESqMJrH-nv29b6uswro8-90">
          <mxGeometry relative="1" as="geometry">
            <mxPoint x="779" y="837" as="targetPoint" />
          </mxGeometry>
        </mxCell>
        <mxCell id="ESqMJrH-nv29b6uswro8-204" value="on match end" style="edgeLabel;html=1;align=center;verticalAlign=middle;resizable=0;points=[];" vertex="1" connectable="0" parent="ESqMJrH-nv29b6uswro8-202">
          <mxGeometry x="0.1509" y="-1" relative="1" as="geometry">
            <mxPoint x="1" y="-6" as="offset" />
          </mxGeometry>
        </mxCell>
        <mxCell id="ESqMJrH-nv29b6uswro8-207" style="edgeStyle=orthogonalEdgeStyle;rounded=0;orthogonalLoop=1;jettySize=auto;html=1;exitX=1;exitY=0.5;exitDx=0;exitDy=0;entryX=1;entryY=0.5;entryDx=0;entryDy=0;" edge="1" parent="1" source="ESqMJrH-nv29b6uswro8-205" target="ESqMJrH-nv29b6uswro8-90">
          <mxGeometry relative="1" as="geometry" />
        </mxCell>
        <mxCell id="ESqMJrH-nv29b6uswro8-211" value="both players want a re-match" style="edgeLabel;html=1;align=center;verticalAlign=middle;resizable=0;points=[];" vertex="1" connectable="0" parent="ESqMJrH-nv29b6uswro8-207">
          <mxGeometry x="-0.4787" y="-2" relative="1" as="geometry">
            <mxPoint x="6" y="-29" as="offset" />
          </mxGeometry>
        </mxCell>
        <mxCell id="ESqMJrH-nv29b6uswro8-205" value="re-match" style="rounded=1;whiteSpace=wrap;html=1;" vertex="1" parent="1">
          <mxGeometry x="721" y="890" width="120" height="60" as="geometry" />
        </mxCell>
        <mxCell id="ESqMJrH-nv29b6uswro8-208" style="edgeStyle=orthogonalEdgeStyle;rounded=0;orthogonalLoop=1;jettySize=auto;html=1;exitX=0;exitY=0.5;exitDx=0;exitDy=0;entryX=1;entryY=0.75;entryDx=0;entryDy=0;" edge="1" parent="1" source="ESqMJrH-nv29b6uswro8-206" target="ESqMJrH-nv29b6uswro8-13">
          <mxGeometry relative="1" as="geometry">
            <Array as="points">
              <mxPoint x="602" y="996" />
              <mxPoint x="602" y="264" />
            </Array>
          </mxGeometry>
        </mxCell>
        <mxCell id="ESqMJrH-nv29b6uswro8-206" value="end session" style="rounded=1;whiteSpace=wrap;html=1;" vertex="1" parent="1">
          <mxGeometry x="721" y="966" width="120" height="60" as="geometry" />
        </mxCell>
        <mxCell id="ESqMJrH-nv29b6uswro8-209" style="edgeStyle=orthogonalEdgeStyle;rounded=0;orthogonalLoop=1;jettySize=auto;html=1;exitX=0;exitY=0.5;exitDx=0;exitDy=0;entryX=0.999;entryY=0.825;entryDx=0;entryDy=0;entryPerimeter=0;" edge="1" parent="1" source="ESqMJrH-nv29b6uswro8-205" target="ESqMJrH-nv29b6uswro8-13">
          <mxGeometry relative="1" as="geometry" />
        </mxCell>
        <mxCell id="ESqMJrH-nv29b6uswro8-212" value="&amp;nbsp;no re-match&amp;nbsp;" style="edgeLabel;html=1;align=center;verticalAlign=middle;resizable=0;points=[];" vertex="1" connectable="0" parent="ESqMJrH-nv29b6uswro8-209">
          <mxGeometry x="-0.8397" y="1" relative="1" as="geometry">
            <mxPoint x="7" y="-3" as="offset" />
          </mxGeometry>
        </mxCell>
        <mxCell id="ESqMJrH-nv29b6uswro8-214" value="view all records" style="rounded=1;whiteSpace=wrap;html=1;" vertex="1" parent="1">
          <mxGeometry x="454.06" y="1033" width="112" height="15" as="geometry" />
        </mxCell>
      </root>
    </mxGraphModel>
  </diagram>
</mxfile>
